<?xml version="1.0" encoding="utf-8"?>
<!-- Generator: Adobe Illustrator 24.1.3, SVG Export Plug-In . SVG Version: 6.00 Build 0)  -->
<svg version="1.1" id="Art" xmlns="http://www.w3.org/2000/svg" xmlns:xlink="http://www.w3.org/1999/xlink" x="0px" y="0px"
	 viewBox="0 0 1518.6 1220.2" style="enable-background:new 0 0 1518.6 1220.2;" xml:space="preserve">
<style type="text/css">
	.st0{fill:#EA4335;}
	.st1{fill:#4285F4;}
	.st2{fill:#34A853;}
	.st3{fill:#FBBC05;}
</style>
<g>
	<g>
		<path class="st0" d="M963.6,336.5h46.3l132-132l6.5-56.1C902.7-68.4,527.8-44.9,310.9,200.7C250.7,268.9,207,350.1,183.1,438
			c14.7-6,31-7,46.3-2.7l264-43.6c0,0,13.4-22.2,20.4-20.9c117.4-129,315-144,450.7-34.3H963.6z"/>
		<path class="st1" d="M1330,438c-30.4-111.8-92.6-212.2-179.2-289L965.5,334.3c78.2,63.9,122.8,160.3,120.9,261.3v32.9
			c91.1,0,164.9,73.8,164.9,164.9s-73.8,164.9-164.9,164.9H756.6l-32.9,33.4v197.8l32.9,32.9h329.8
			c236.8,1.8,430.3-188.7,432.2-425.5C1519.7,652.9,1448.8,518.4,1330,438z"/>
		<path class="st2" d="M426.3,1220.2h329.8v-264H426.3c-23.5,0-46.7-5.1-68.1-14.9l-46.3,14.4l-132.9,132l-11.6,46.3
			C241.9,1190.4,332.9,1220.7,426.3,1220.2z"/>
		<path class="st3" d="M426.3,363.9C189.4,365.3-1.4,558.4,0,795.3c0.8,132.3,62.5,256.8,167.5,337.4l191.2-191.2
			c-83-37.5-119.9-135.2-82.4-218.1s135.2-119.9,218.1-82.4c36.6,16.5,65.8,45.9,82.4,82.4l191.2-191.2
			C686.8,425.6,560.2,363.3,426.3,363.9z"/>
	</g>
</g>
</svg>
