<svg id="Layer_1" data-name="Layer 1" xmlns="http://www.w3.org/2000/svg" viewBox="0 0 310.73 693.92"><defs><style>.cls-1{fill:#fff;}.cls-1,.cls-2,.cls-3,.cls-4{fill-rule:evenodd;}.cls-2{fill:#a6a385;}.cls-3{fill:#499d4a;}.cls-4{fill:#58aa50;}</style></defs><path class="cls-1" d="M171.16,695l-18.47-6.31s2.25-94.17-31.55-100.93c-22.52-26.14,3.62-1108.46,84.72-3.61,0,0-27.94,14-32.9,37.85-5.41,23.44-1.8,73-1.8,73Z" transform="translate(0 -1.05)"/><path class="cls-2" d="M171.16,695l-18.47-6.31s2.25-94.17-31.55-100.93c-22.52-26.14,3.62-1108.46,84.72-3.61,0,0-27.94,14-32.9,37.85-5.41,23.44-1.8,73-1.8,73Z" transform="translate(0 -1.05)"/><path class="cls-1" d="M181.07,603.94S342.84,497.6,305,276.35C268.49,115.5,182.43,62.78,173,42.5,162.6,28.08,152.69,2.85,152.69,2.85l6.76,447.43c0,.46-14,137,21.63,153.67" transform="translate(0 -1.05)"/><path class="cls-3" d="M181.07,603.94S342.84,497.6,305,276.35C268.49,115.5,182.43,62.78,173,42.5,162.6,28.08,152.69,2.85,152.69,2.85l6.76,447.43c0,.46-14,137,21.63,153.67" transform="translate(0 -1.05)"/><path class="cls-1" d="M143.23,609.8S-8.63,506.16.39,323.67C9,141.18,116.19,51.51,136.91,35.29c13.52-14.42,14-19.83,14.88-34.24,9.46,20.27,7.66,303.25,9,336.59C164.85,466.06,153.59,585.47,143.23,609.8Z" transform="translate(0 -1.05)"/><path class="cls-4" d="M143.23,609.8S-8.63,506.16.39,323.67C9,141.18,116.19,51.51,136.91,35.29c13.52-14.42,14-19.83,14.88-34.24,9.46,20.27,7.66,303.25,9,336.59C164.85,466.06,153.59,585.47,143.23,609.8Z" transform="translate(0 -1.05)"/></svg>