<svg id="Layer_1" data-name="Layer 1" xmlns="http://www.w3.org/2000/svg" viewBox="0 0 1253.44 1035.71"><defs><style>.cls-1{fill:#cf4037;}</style></defs><path class="cls-1" d="M1339,0c31.32,8.84,47.65,16.4,67.4,30.26l-383,446C1128,544.35,1237.71,713.74,1178.2,851.78c29.28-187.21-164.48-327.61-278.36-345.25Z" transform="translate(-672.36 0)"/><path class="cls-1" d="M1033.22,1030.8c71.18,3.28,142,4.91,216.27,4.91,160,0,313.57-7.74,457.53-21.67a114.66,114.66,0,0,0,102.47-100.79c11.64-96.21,17.09-197.07,17.09-300.81s-5.42-204.56-17.09-300.8A114.79,114.79,0,0,0,1707,210.82c-62.85-6-127.63-10.92-193.94-14.55,0,0-274.54,594.55-302.18,655.8-40.81,90.28-96.64,156.44-177.68,178.73Z" transform="translate(-672.36 0)"/><path class="cls-1" d="M792,1014c-53.29-8.73-94.93-39.21-102.43-100.79C677.86,817,672.36,716.18,672.36,612.44s5.5-204.56,17.17-300.8A114.68,114.68,0,0,1,792,210.82c74-7.1,150.54-12.59,229.18-16.3L1161.21,37.86c-.87.19,33.14-6.11,62.82,1.2L735.62,607.57c105.73-50.38,415.45,28.23,415.45,212C1151.07,1016,937.89,1038,792,1014Zm1091.8-791.29a42.51,42.51,0,1,1-3.66,0q1.76-.08,3.51,0Zm-.15,7.16c-18.69,0-33.75,15.64-33.75,35.25s15.06,35.24,33.9,35.24c18.62.18,33.57-15.64,33.57-35.24s-14.95-35.25-33.57-35.25Zm-7.82,59.69h-8.44V242.5a84.7,84.7,0,0,1,14.19-1.35c7.57,0,12.18,1.53,15.24,3.78,2.66,2.15,4.15,5.31,4.15,9.82a11.33,11.33,0,0,1-9.06,11.28v.44c4.15.72,6.84,4.51,7.71,11.49,1.13,7.35,2.11,10.15,2.8,11.64h-8.66c-1-1.49-2-5.86-2.94-12-.91-5.64-4.15-7.89-10-7.89h-5V289.6Zm0-26.55h5.13c6.26,0,11.35-2,11.35-7.5,0-4.14-3-7.89-11-7.89a54.75,54.75,0,0,0-5.49.15v15.24Z" transform="translate(-672.36 0)"/></svg>